<?xml version="1.0" encoding="utf-8"?>
<!-- Generator: Adobe Illustrator 15.0.0, SVG Export Plug-In . SVG Version: 6.00 Build 0)  -->
<!DOCTYPE svg PUBLIC "-//W3C//DTD SVG 1.1//EN" "http://www.w3.org/Graphics/SVG/1.1/DTD/svg11.dtd">
<svg version="1.1" id="Calque_1" xmlns="http://www.w3.org/2000/svg" xmlns:xlink="http://www.w3.org/1999/xlink" x="0px" y="0px"
	 width="841.889px" height="1190.551px" viewBox="0 0 841.889 1190.551" enable-background="new 0 0 841.889 1190.551"
	 xml:space="preserve">
<title>thicker_arrow_forward</title>
<path fill="none" stroke="#000000" stroke-width="10" stroke-linecap="round" stroke-linejoin="round" stroke-miterlimit="10" d="
	M569.374,525.781c0,10.843-12.552,19.634-28.034,19.634H298.742c-15.482,0-28.034-8.791-28.034-19.634v-57.704
	c0-10.842,12.551-19.635,28.034-19.635H541.34c15.482,0,28.034,8.792,28.034,19.635V525.781z"/>
<path fill="none" stroke="#000000" stroke-width="10" stroke-linecap="round" stroke-linejoin="round" stroke-miterlimit="10" d="
	M569.374,622.753c0,10.845-12.552,19.635-28.034,19.635H298.743c-15.484,0-28.035-8.79-28.035-19.635v-57.704
	c0-10.844,12.551-19.634,28.035-19.634H541.34c15.482,0,28.034,8.79,28.034,19.634V622.753z"/>
<path fill="none" stroke="#000000" stroke-width="10" stroke-linecap="round" stroke-linejoin="round" stroke-miterlimit="10" d="
	M569.374,719.724c0,10.845-12.552,19.635-28.034,19.635H298.743c-15.484,0-28.035-8.79-28.035-19.635v-57.703
	c0-10.843,12.551-19.633,28.035-19.633H541.34c15.482,0,28.034,8.79,28.034,19.633V719.724z"/>
<line fill="none" stroke="#000000" stroke-width="8.9931" stroke-linecap="round" stroke-linejoin="round" stroke-miterlimit="10" x1="392.778" y1="695.846" x2="443.966" y2="695.846"/>
<line fill="none" stroke="#000000" stroke-width="8.9931" stroke-linecap="round" stroke-linejoin="round" stroke-miterlimit="10" x1="392.778" y1="593.901" x2="443.966" y2="593.901"/>
<line fill="none" stroke="#000000" stroke-width="8.9931" stroke-linecap="round" stroke-linejoin="round" stroke-miterlimit="10" x1="391.708" y1="496.929" x2="442.896" y2="496.929"/>
</svg>
