<?xml version="1.0" encoding="utf-8"?>
<!-- Generator: Adobe Illustrator 15.0.0, SVG Export Plug-In . SVG Version: 6.00 Build 0)  -->
<!DOCTYPE svg PUBLIC "-//W3C//DTD SVG 1.1//EN" "http://www.w3.org/Graphics/SVG/1.1/DTD/svg11.dtd">
<svg version="1.1" id="Calque_1" xmlns="http://www.w3.org/2000/svg" xmlns:xlink="http://www.w3.org/1999/xlink" x="0px" y="0px"
	 width="841.889px" height="1190.551px" viewBox="0 0 841.889 1190.551" enable-background="new 0 0 841.889 1190.551"
	 xml:space="preserve">
<title>thicker_arrow_forward</title>
<title>thicker_arrow_forward</title>
<title>thicker_arrow_forward</title>
<path fill="none" stroke="#000000" stroke-width="10" stroke-linecap="round" stroke-miterlimit="10" d="M171.433,410.955"/>
<line fill="none" stroke="#000000" stroke-width="10.3231" stroke-linecap="round" stroke-miterlimit="10" x1="278.118" y1="533.199" x2="329.014" y2="533.199"/>
<line fill="none" stroke="#000000" stroke-width="10.3231" stroke-linecap="round" stroke-miterlimit="10" x1="330.045" y1="657.077" x2="279.15" y2="657.077"/>
<line fill="none" stroke="#000000" stroke-width="10.3231" stroke-linecap="round" stroke-miterlimit="10" x1="277.629" y1="534.588" x2="277.629" y2="657.077"/>
<path fill="none" stroke="#000000" stroke-width="10.3231" stroke-linecap="round" stroke-miterlimit="10" d="M332.11,657.077
	c20.99,16.173,81.897,62.97,92.564,70.54c10.668,7.572,29.25-0.688,29.25-14.795V472.636c0-8.946-19.27-22.365-33.035-9.076
	l-88.779,69.64"/>
<path fill="none" stroke="#000000" stroke-width="10.3231" stroke-linecap="round" stroke-miterlimit="10" d="M486.698,582.75
	c4.819,13.142,5.593,27.787-1.936,39.659"/>
<path fill="none" stroke="#000000" stroke-width="10.2486" stroke-linecap="round" stroke-miterlimit="10" d="M511.646,555.861
	c15.295,26.888,14.209,61.953-2.011,88.422"/>
<path fill="none" stroke="#000000" stroke-width="10.3231" stroke-linecap="round" stroke-miterlimit="10" d="M539.777,511.176
	c25.904,50.067,20.646,119.748-2.58,167.751"/>
</svg>
