<?xml version="1.0" encoding="utf-8"?>
<!-- Generator: Adobe Illustrator 15.0.0, SVG Export Plug-In . SVG Version: 6.00 Build 0)  -->
<!DOCTYPE svg PUBLIC "-//W3C//DTD SVG 1.1//EN" "http://www.w3.org/Graphics/SVG/1.1/DTD/svg11.dtd">
<svg version="1.1" id="Calque_1" xmlns="http://www.w3.org/2000/svg" xmlns:xlink="http://www.w3.org/1999/xlink" x="0px" y="0px"
	 width="841.889px" height="1190.551px" viewBox="0 0 841.889 1190.551" enable-background="new 0 0 841.889 1190.551"
	 xml:space="preserve">
<title>thicker_arrow_forward</title>
<title>thicker_arrow_forward</title>
<title>thicker_arrow_forward</title>
<path fill="none" stroke="#000000" stroke-width="10" stroke-linecap="round" stroke-miterlimit="10" d="M171.433,410.955"/>
<rect x="265.039" y="746.541" fill="#FFFFFF" width="295.01" height="143.885"/>
<path fill="none" stroke="#000000" stroke-width="10" stroke-linecap="round" stroke-miterlimit="10" d="M353.402,544.208
	c0-34.922,28.309-63.233,63.23-63.233c34.926,0,63.235,28.311,63.235,63.233c0,34.924-28.31,63.23-63.235,63.23
	C381.711,607.438,353.402,579.132,353.402,544.208z"/>
<path fill="none" stroke="#000000" stroke-width="10" stroke-linecap="round" stroke-miterlimit="10" d="M331.171,698.872
	c0-47.199,38.262-85.466,85.461-85.466c47.201,0,85.466,38.267,85.466,85.466s-38.265,85.461-85.466,85.461
	C369.434,784.333,331.171,746.071,331.171,698.872"/>
<rect x="301.501" y="699.906" fill="#FFFFFF" width="218.931" height="106.778"/>
<circle fill="none" stroke="#000000" stroke-width="10" stroke-linecap="round" stroke-miterlimit="10" cx="419.534" cy="592.701" r="141.54"/>
</svg>
