<?xml version="1.0" encoding="utf-8"?>
<!-- Generator: Adobe Illustrator 15.0.0, SVG Export Plug-In . SVG Version: 6.00 Build 0)  -->
<!DOCTYPE svg PUBLIC "-//W3C//DTD SVG 1.1//EN" "http://www.w3.org/Graphics/SVG/1.1/DTD/svg11.dtd">
<svg version="1.1" id="Calque_1" xmlns="http://www.w3.org/2000/svg" xmlns:xlink="http://www.w3.org/1999/xlink" x="0px" y="0px"
	 width="841.889px" height="1190.551px" viewBox="0 0 841.889 1190.551" enable-background="new 0 0 841.889 1190.551"
	 xml:space="preserve">
<title>thicker_arrow_forward</title>
<title>thicker_arrow_forward</title>
<title>thicker_arrow_forward</title>
<path fill="none" stroke="#000000" stroke-width="10" stroke-linecap="round" stroke-miterlimit="10" d="M171.433,410.955"/>
<path fill="none" stroke="#000000" stroke-width="10" stroke-linecap="round" stroke-miterlimit="10" d="M435.575,652.242
	c0-33.276,27.106-60.222,60.384-60.222s60.384,26.944,60.384,60.222c0,29.867-21.751,54.703-50.319,59.409v26.622l-19.315-26.297
	C457.812,707.432,435.575,682.435,435.575,652.242z"/>
<path fill="none" stroke="#000000" stroke-width="10" stroke-linecap="round" stroke-miterlimit="10" d="M372.273,621.604
	l-26.933,36.663V621.15c-39.834-6.562-70.162-41.191-70.162-82.835c0-46.397,37.795-83.968,84.193-83.968
	c46.396,0,84.194,37.569,84.194,83.968C443.566,580.412,412.561,615.266,372.273,621.604z"/>
<circle cx="357.78" cy="538.86" r="8.653"/>
<circle cx="324.385" cy="538.859" r="8.652"/>
<circle cx="389.539" cy="538.859" r="8.652"/>
<circle cx="497.055" cy="654.189" r="6.559"/>
<circle cx="471.74" cy="654.189" r="6.558"/>
<circle cx="521.13" cy="654.189" r="6.559"/>
</svg>
