<?xml version="1.0" encoding="utf-8"?>
<!-- Generator: Adobe Illustrator 15.0.0, SVG Export Plug-In . SVG Version: 6.00 Build 0)  -->
<!DOCTYPE svg PUBLIC "-//W3C//DTD SVG 1.1//EN" "http://www.w3.org/Graphics/SVG/1.1/DTD/svg11.dtd">
<svg version="1.1" id="Calque_1" xmlns="http://www.w3.org/2000/svg" xmlns:xlink="http://www.w3.org/1999/xlink" x="0px" y="0px"
	 width="841.889px" height="1190.551px" viewBox="0 0 841.889 1190.551" enable-background="new 0 0 841.889 1190.551"
	 xml:space="preserve">
<title>thicker_arrow_forward</title>
<title>thicker_arrow_forward</title>
<title>thicker_arrow_forward</title>
<g>
	<path d="M437.185,596.153c-1.361-17.667,9.511-21.743,10.869-38.05c1.358-17.666-8.153-36.69-20.385-40.766
		c-23.1-8.153-44.842,6.793-44.842,27.178c0,25.819,35.331,31.254,36.689,58.433c0,23.1-14.947,66.585-46.203,58.433
		c-9.512-2.718-12.229-10.872-12.229-17.666c-1.359-23.103,24.46-28.535,23.102-48.92c0-19.024-12.23-13.588-20.384-32.613
		c-10.87-61.151,62.51-81.535,89.688-42.126C468.438,539.079,463.001,586.64,437.185,596.153z"/>
</g>
<path fill="none" stroke="#000000" stroke-width="10" stroke-linecap="round" stroke-miterlimit="10" d="M328.748,556.798"/>
<path fill="none" stroke="#000000" stroke-width="10" stroke-linecap="round" stroke-miterlimit="10" d="M171.433,410.955"/>
<path fill="none" stroke="#000000" stroke-width="10" stroke-linecap="round" stroke-miterlimit="10" d="M326.476,519.218
	c0-37.922,33.991-68.608,75.997-68.608"/>
<path fill="none" stroke="#000000" stroke-width="10" stroke-linecap="round" stroke-miterlimit="10" d="M515.059,519.218
	c0-41.69-53.465-68.608-114.702-68.608"/>
<path fill="none" stroke="#000000" stroke-width="10" stroke-linecap="round" stroke-miterlimit="10" d="M450.323,675.962
	c3.694-42.748,46.813-57.938,57.328-86.497c7.436-20.197,7.407-42.012,7.762-69.455"/>
<path fill="none" stroke="#000000" stroke-width="10" stroke-linecap="round" stroke-miterlimit="10" d="M343.365,695.665
	c0,25.671,18.254,46.442,40.813,46.442"/>
<path fill="none" stroke="#000000" stroke-width="10" stroke-linecap="round" stroke-miterlimit="10" d="M450.323,675.962
	c0,36.561-30.529,66.146-68.257,66.146"/>
</svg>
