<?xml version="1.0" encoding="utf-8"?>
<!-- Generator: Adobe Illustrator 15.0.0, SVG Export Plug-In . SVG Version: 6.00 Build 0)  -->
<!DOCTYPE svg PUBLIC "-//W3C//DTD SVG 1.1//EN" "http://www.w3.org/Graphics/SVG/1.1/DTD/svg11.dtd">
<svg version="1.1" id="Calque_1" xmlns="http://www.w3.org/2000/svg" xmlns:xlink="http://www.w3.org/1999/xlink" x="0px" y="0px"
	 width="841.889px" height="1190.551px" viewBox="0 0 841.889 1190.551" enable-background="new 0 0 841.889 1190.551"
	 xml:space="preserve">
<title>thicker_arrow_forward</title>
<title>thicker_arrow_forward</title>
<title>thicker_arrow_forward</title>
<path fill="none" stroke="#000000" stroke-width="10" stroke-linecap="round" stroke-miterlimit="10" d="M171.433,410.955"/>
<circle fill="none" stroke="#000000" stroke-width="10" stroke-linecap="round" stroke-miterlimit="10" cx="478.581" cy="519.889" r="53.342"/>
<circle fill="none" stroke="#000000" stroke-width="10" stroke-linecap="round" stroke-miterlimit="10" cx="349.935" cy="567.04" r="53.342"/>
<path fill="none" stroke="#000000" stroke-width="10" stroke-linecap="round" stroke-miterlimit="10" d="M406.486,650.357
	c0-39.816,32.277-72.094,72.094-72.094s72.096,32.277,72.096,72.094s-32.279,72.094-72.096,72.094S406.486,690.174,406.486,650.357"
	/>
<rect x="381.458" y="651.23" fill="#FFFFFF" width="184.684" height="90.076"/>
<path fill="none" stroke="#000000" stroke-width="10" stroke-linecap="round" stroke-miterlimit="10" d="M278.639,696.828
	c0-39.816,32.278-72.094,72.095-72.094c39.817,0,72.095,32.277,72.095,72.094s-32.278,72.094-72.095,72.094
	C310.917,768.922,278.639,736.645,278.639,696.828"/>
<rect x="253.611" y="694.682" fill="#FFFFFF" width="184.685" height="90.078"/>
</svg>
