<?xml version="1.0" encoding="utf-8"?>
<!-- Generator: Adobe Illustrator 15.0.0, SVG Export Plug-In . SVG Version: 6.00 Build 0)  -->
<!DOCTYPE svg PUBLIC "-//W3C//DTD SVG 1.1//EN" "http://www.w3.org/Graphics/SVG/1.1/DTD/svg11.dtd">
<svg version="1.1" id="Calque_1" xmlns="http://www.w3.org/2000/svg" xmlns:xlink="http://www.w3.org/1999/xlink" x="0px" y="0px"
	 width="841.889px" height="1190.551px" viewBox="0 0 841.889 1190.551" enable-background="new 0 0 841.889 1190.551"
	 xml:space="preserve">
<title>thicker_arrow_forward</title>
<title>thicker_arrow_forward</title>
<title>thicker_arrow_forward</title>
<g>
	<path fill="none" stroke="#000000" stroke-width="10" stroke-linecap="round" stroke-linejoin="round" stroke-miterlimit="10" d="
		M366.271,673.371v20.664c0,0.668,0,1.334-0.666,2.001c-2,9.999-7.334,20.667-16,29.333c-18.666,18.666-45.999,22.666-60.666,7.999
		c-14.667-14.667-11.333-42,8-60.666c18.666-18.666,45.998-22.665,60.666-7.998c4,3.999,6.665,8.667,8,13.332
		c0.666,2.666,0.666,4.666,0.666,6.667"/>
	<path fill="none" stroke="#000000" stroke-width="10" stroke-linecap="round" stroke-linejoin="round" stroke-miterlimit="10" d="
		M544.268,640.703c-1.333-5.333-3.999-10-8-13.999c-14.667-14.667-42-11.333-60.666,7.998c-18.666,18.668-22.665,46-7.997,60.667
		c14.664,14.665,41.997,11.333,60.664-8c11.333-11.332,17.333-25.999,16.665-38.665v-6.668v-85.998V448.707h-0.665l-177.998,42.666
		V693.37"/>
	<path fill="none" stroke="#000000" stroke-width="10" stroke-linecap="round" stroke-linejoin="round" stroke-miterlimit="10" d="
		M544.934,642.704"/>
	
		<line fill="none" stroke="#000000" stroke-width="10" stroke-linecap="round" stroke-linejoin="round" stroke-miterlimit="10" x1="366.271" y1="556.038" x2="544.934" y2="513.373"/>
</g>
</svg>
