<?xml version="1.0" encoding="utf-8"?>
<!-- Generator: Adobe Illustrator 15.0.0, SVG Export Plug-In . SVG Version: 6.00 Build 0)  -->
<!DOCTYPE svg PUBLIC "-//W3C//DTD SVG 1.1//EN" "http://www.w3.org/Graphics/SVG/1.1/DTD/svg11.dtd">
<svg version="1.1" id="Calque_1" xmlns="http://www.w3.org/2000/svg" xmlns:xlink="http://www.w3.org/1999/xlink" x="0px" y="0px"
	 width="841.889px" height="1190.551px" viewBox="0 0 841.889 1190.551" enable-background="new 0 0 841.889 1190.551"
	 xml:space="preserve">
<title>thicker_arrow_forward</title>
<title>thicker_arrow_forward</title>
<title>thicker_arrow_forward</title>
<path fill="none" stroke="#000000" stroke-width="10" stroke-linecap="round" stroke-miterlimit="10" d="M171.433,410.955"/>
<path fill="#2D2D2C" stroke="#000000" stroke-width="6" stroke-linecap="round" stroke-linejoin="round" stroke-miterlimit="10" d="
	M564.333,520.677l-74.006,34.931V511.5c0-9.769-7.993-17.761-17.762-17.761h-187.68c-9.769,0-17.761,7.993-17.761,17.761v167.551
	c0,9.77,7.993,17.76,17.761,17.76h187.68c9.769,0,17.762-7.99,17.762-17.76v-43.812l74.302,34.932V520.677H564.333z
	 M487.367,679.051c0,8.289-6.81,14.801-14.802,14.801h-187.68c-8.289,0-14.801-6.809-14.801-14.801V511.5
	c0-8.289,6.809-14.801,14.801-14.801h187.68c8.288,0,14.802,6.809,14.802,14.801V679.051L487.367,679.051z M561.372,665.139
	l-71.045-33.451v-72.823l71.342-33.451v139.725H561.372z"/>
</svg>
